<?xml version="1.0" encoding="utf-8"?>
<!-- Generator: Adobe Illustrator 16.0.0, SVG Export Plug-In . SVG Version: 6.00 Build 0)  -->
<!DOCTYPE svg PUBLIC "-//W3C//DTD SVG 1.1//EN" "http://www.w3.org/Graphics/SVG/1.1/DTD/svg11.dtd">
<svg version="1.1" id="Layer_2" xmlns="http://www.w3.org/2000/svg" xmlns:xlink="http://www.w3.org/1999/xlink" x="0px" y="0px"
	 width="62.397px" height="69.5px" viewBox="0 0 62.397 69.5" enable-background="new 0 0 62.397 69.5" xml:space="preserve">
<path fill="#FFFFFF" d="M47.952,40.748c-0.01-0.059-0.016-0.118-0.025-0.177v-8.06c0.01-0.015,0.015-0.039,0.024-0.052
	c0,0-0.021,0.016-0.024,0.019V19.445c0-2.764-2.857-5.002-6.382-5.002H14.423c-3.523,0-6.381,2.238-6.381,5.002v21.258
	c0,2.762,2.857,5.002,6.381,5.002h24.389c3.439,2.311,9.763,1.816,16.23,2.289C50.198,46.528,48.423,43.584,47.952,40.748z
	 M41.782,34.775H13.54v-1.939h28.242V34.775z M41.782,29.602H13.54v-1.939h28.242V29.602z M41.782,24.428H13.54v-1.94h28.242V24.428
	z"/>
</svg>
