<?xml version="1.0" encoding="utf-8"?>
<!-- Generator: Adobe Illustrator 16.0.0, SVG Export Plug-In . SVG Version: 6.00 Build 0)  -->
<!DOCTYPE svg PUBLIC "-//W3C//DTD SVG 1.1//EN" "http://www.w3.org/Graphics/SVG/1.1/DTD/svg11.dtd">
<svg version="1.1" id="Layer_2" xmlns="http://www.w3.org/2000/svg" xmlns:xlink="http://www.w3.org/1999/xlink" x="0px" y="0px"
	 width="62.397px" height="69.5px" viewBox="0 0 62.397 69.5" enable-background="new 0 0 62.397 69.5" xml:space="preserve">
<path fill="#ED1C24" d="M55.741,17.297c-0.562-0.519-1.227-0.947-1.854-1.282c-1.085-0.581-2.241-1.01-3.359-1.521
	c-1.088-0.495-2.173-0.998-3.316-1.358c-1.097-0.346-2.224-0.587-3.359-0.767c-2.397-0.381-4.843-0.602-7.267-0.732
	c-1.236-0.067-2.477-0.092-3.715-0.075c-1.229,0.018-2.427,0.239-3.65,0.308c-1.229,0.069-2.362,0.34-3.539,0.684
	c-1.164,0.34-2.338,0.662-3.471,1.099c-1.037,0.399-2.024,0.919-2.975,1.495c-1.021,0.617-2.039,1.243-3.012,1.935
	c-0.925,0.659-1.81,1.38-2.58,2.215c-0.802,0.869-1.469,1.852-2.134,2.824c-0.714,1.046-1.471,2.063-2.135,3.142
	c-0.697,1.134-1.079,2.399-1.548,3.635c-0.839,2.215-1.729,4.428-2.165,6.766c-0.448,2.396-0.452,4.863-0.081,7.271
	c0.306,1.977,0.845,3.921,1.645,5.755c0.062,0.14,0.124,0.278,0.188,0.417c0.498,1.077,1.095,2.119,1.818,3.062
	c0.738,0.961,1.605,1.794,2.471,2.639c0.433,0.423,0.805,0.872,1.19,1.337c0.359,0.434,0.77,0.663,1.331,0.729
	c1.188,0.14,2.298,0.563,3.476,0.767c2.423,0.419,4.914,0.391,7.342,0.018c0.708-0.196,1.415-0.389,2.128-0.562
	c1.064-0.256,2.13-0.501,3.196-0.745c0.72-0.235,1.432-0.486,2.139-0.751c2.37-0.895,4.704-1.919,7.001-2.985
	c1.084-0.505,2.099-1.084,3.032-1.835c0.602-0.481,1.191-0.934,1.82-1.345c0.24-0.216,0.477-0.436,0.718-0.652
	c0.727-0.847,1.452-1.657,2.294-2.421c0.228-0.209,0.46-0.418,0.689-0.63c0.172-0.507,0.338-1.018,0.491-1.53
	c-0.008-0.169-0.023-0.339-0.043-0.51c-0.253,0.069-0.532,0.278-0.676,0.442c-0.542,0.615-1.155,1.163-1.83,1.629
	c-0.982,0.677-2.067,1.187-3.104,1.773c-1.09,0.617-2.067,1.341-3.056,2.105c-1.944,1.505-4.301,2.488-6.544,3.462
	c-1.157,0.504-2.329,0.998-3.519,1.422c-0.567,0.202-1.168,0.393-1.771,0.438c-0.294,0.021-0.528-0.052-0.804-0.137
	c-0.29-0.089-0.528-0.044-0.809,0.056c-1.19,0.428-2.417,0.752-3.688,0.771c-1.293,0.021-2.555-0.311-3.811-0.582
	c-1.125-0.243-2.307-0.419-3.354-0.914c-1.058-0.499-1.807-1.398-2.682-2.146c-0.927-0.79-1.561-1.702-2.07-2.806
	c-0.511-1.104-0.981-2.247-1.31-3.42c-0.655-2.336-0.344-4.72-0.258-7.103c0.02-0.542,0.049-1.085,0.124-1.623
	c0.315-2.252,0.73-4.453,1.626-6.558c0.152-0.358,0.316-0.713,0.492-1.061c1.035-2.063,2.413-3.837,3.926-5.568
	c0.729-0.835,1.47-1.67,2.373-2.324c0.93-0.671,1.962-1.177,2.958-1.736c1.024-0.576,2.021-1.208,3.092-1.698
	c1.062-0.483,2.188-0.81,3.331-1.039c2.389-0.478,4.831-0.588,7.262-0.615c2.366-0.027,4.747-0.063,7.097,0.267
	c1.191,0.168,2.367,0.436,3.518,0.789c1.029,0.317,2.037,0.735,2.902,1.39c0.026,0.021,0.053,0.041,0.079,0.062
	c0.439,0.342,0.851,0.708,1.315,1.019c0.467,0.312,0.955,0.588,1.449,0.852c1.332,0.712,2.949,1.905,4.549,1.564
	c0.947-0.202,1.59-1.074,1.73-2.001C57.24,19.146,56.619,18.11,55.741,17.297z"/>
<path fill="#ED1C24" d="M51.334,24.659c0,0-0.475,0.048-0.7,0.073c-0.053,0-0.063-0.043-0.063-0.068
	c-0.003-0.041,0.02-0.105,0.09-0.113l0.411-0.046l-0.019-0.067c-0.007-0.025-0.002-0.049,0.012-0.066l0.021-0.023l-0.009-0.032
	c-0.053-0.182-0.018-0.383,0.052-0.629l0.001-0.034l-0.016-0.023c-0.049-0.059-0.143-0.167-0.147-0.195l0.006-0.135l-0.054-0.008
	c-0.387-0.054-0.713-0.08-1.026-0.083c-0.085-0.002-0.086-0.084-0.086-0.093c0.001-0.009,0.003-0.088,0.085-0.088
	c0.119,0.001,0.238,0.006,0.356,0.013l0.104,0.007l-0.046-0.093c-0.011-0.02-0.015-0.038-0.014-0.054l0.005-0.061
	c0,0-0.222-0.014-0.302-0.018c-0.149-0.008-0.297-0.016-0.444-0.029l-0.045-0.024l-0.018,0.001c-0.67,0.037-1.33,0.09-1.971,0.162
	c-0.03,0-0.049-0.014-0.06-0.041l-0.016-0.049l-0.05,0.009c-0.53,0.079-1.018,0.178-1.489,0.299l-0.366,0.095
	c-1.273,0.329-2.859,0.74-4.19,0.74c-0.085,0-0.168-0.002-0.251-0.005c-0.168-0.167-0.441-0.238-0.906-0.238
	c-0.334,0-0.753,0.034-1.292,0.078c-0.531,0.044-1.072,0.118-1.549,0.184l-0.656,0.091c-0.918,0.126-1.866,0.256-2.796,0.344
	c-1.575,0.146-2.893,0.366-4.147,0.692c-0.818,0.213-1.514,0.256-2.37,0.256c-0.193,0-0.393-0.003-0.601-0.005l-0.5-0.004
	c-0.356,0-0.756,0.075-1.143,0.146l-0.035,0.007c-0.341,0.063-0.727,0.135-0.999,0.135c-0.032,0-0.063-0.001-0.094-0.003
	c-0.182-0.015-0.372-0.022-0.564-0.022c-0.487,0-1.023,0.048-1.642,0.145c-0.403,0.063-0.81,0.143-1.168,0.213l-0.123,0.024
	c-0.606,0.117-1.229,0.209-1.832,0.298l-0.385,0.058c-0.425,0.061-0.864,0.123-1.308,0.252c-0.185,0.054-0.359,0.138-0.521,0.216
	c-0.092,0.045-0.335,0.161-0.388,0.161h-0.043l-0.025,0.077c-0.063-0.013-0.128-0.02-0.191-0.02c-0.207,0-0.421,0.069-0.635,0.204
	l-0.707,0.447l0.135,0.147l0.084,0.031l0.04-0.018c0.04,0.015,0.08,0.034,0.122,0.055c0.096,0.048,0.195,0.096,0.303,0.096
	c0.029,0,0.058-0.003,0.107-0.013c0.045,0,0.092,0.036,0.092,0.09c0,0.141-0.078,0.181-0.23,0.244l-0.08,0.036l-0.052,0.085
	l0.023,0.033c0.09,0.119,0.159,0.259,0.228,0.395l0.028,0.058c0.021,0.042,0.016,0.076-0.024,0.132l-0.02,0.025l0.012,0.031
	c0.03,0.085,0.062,0.171,0.099,0.252l0.008,0.019l0.018,0.01c0.3,0.168,0.672,0.213,0.817,0.224
	c0.137,0.011,0.273,0.016,0.408,0.016c0.271,0,0.539-0.018,0.789-0.037c0.817-0.064,1.641-0.199,2.367-0.319l0.109-0.017
	c1.057-0.173,2.114-0.212,3.242-0.254l0.075-0.002c0.6-0.023,1.3-0.054,2.037-0.141c0.163-0.084,0.322-0.145,0.501-0.186
	c0.015,0,0.032,0.006,0.052,0.016l0.062,0.012l0.028-0.054c0.02-0.037,0.056-0.043,0.075-0.043c0.017,0,0.034,0.005,0.051,0.012
	l0.138,0.07c0.031,0.015,0.051,0.063,0.039,0.097c-0.045,0.135-0.103,0.23-0.184,0.307l-0.016,0.014l-0.003,0.021
	c-0.051,0.309-0.12,0.626-0.17,0.86c-0.076,0.356-0.148,0.692-0.176,0.97c-0.058,0.56-0.18,1.112-0.312,1.704
	c-0.155,0.696-0.315,1.417-0.358,2.159c-0.063,1.122-0.271,1.891-0.656,3c-0.229,0.659-0.302,1.34-0.372,1.997
	c-0.037,0.351-0.072,0.683-0.13,0.998c-0.135,0.039-0.258,0.086-0.384,0.134c-0.119,0.046-0.243,0.092-0.359,0.12
	c-0.175,0.042-0.382,0.043-0.603,0.043c-0.246,0-0.525,0.001-0.819,0.059c-0.853,0.167-1.308,0.396-1.526,0.767
	c-0.044,0.074-0.082,0.154-0.118,0.251l-0.035,0.091l0.097-0.01c0.018-0.002,0.034-0.003,0.051-0.003
	c0.142,0,0.175,0.065,0.188,0.115c0.008,0.028,0.004,0.053-0.012,0.072c-0.018,0.023-0.05,0.037-0.082,0.037
	c-0.017,0-0.039-0.003-0.058-0.021l-0.041-0.019h-0.095l0.01,0.069c0.01,0.062,0.019,0.123,0.029,0.183l0.011,0.035l0.034,0.011
	c0.061,0.024,0.092,0.05,0.128,0.102c0.014,0.02,0.019,0.039,0.014,0.057c-0.005,0.021-0.024,0.041-0.05,0.054l-0.044,0.044
	l0.024,0.053c0.007,0.012,0.012,0.023,0.037,0.054c0.16,0.104,0.355,0.215,0.593,0.248c0.029,0.005,0.045,0.019,0.052,0.047
	c0.01,0.042-0.009,0.097-0.043,0.119c-0.077,0.056-0.141,0.075-0.252,0.079c-0.012,0-0.024-0.004-0.039-0.015l-0.027-0.017
	l-0.029,0.013c-0.044,0.018-0.086,0.038-0.129,0.059l-0.025,0.014l-0.092,0.445l0.725,0.115c0.234,0.036,0.535,0.057,0.871,0.057
	c0.469,0,0.982-0.038,1.457-0.104c-0.096,0.57-0.262,1.161-0.439,1.789c-0.362,1.289-0.737,2.623-0.531,3.982l0.142,0.935
	l0.853-0.408c0.126-0.061,0.18-0.066,0.263-0.075c0.377-0.039,0.647-0.154,0.999-0.644c0.238-0.331,0.345-0.807,0.44-1.231
	l0.011-0.051c0.028-0.128,0.055-0.248,0.085-0.343c0.166-0.525,0.298-1.084,0.428-1.639c0.122-0.521,0.247-1.059,0.403-1.563
	c0.041-0.132,0.076-0.273,0.112-0.42c0.063-0.255,0.13-0.52,0.227-0.673c0.142-0.224,0.142-0.224,0.462-0.27
	c0.146-0.021,0.315-0.046,0.521-0.09c0.699-0.148,1.406-0.228,2.176-0.313c0.682-0.075,1.385-0.153,2.084-0.289l0.342-0.066
	l0.125-0.253c0.316-0.193,1.624-0.259,2.127-0.283c0.403-0.02,0.722-0.036,0.948-0.074c0.439-0.077,0.888-0.116,1.376-0.159
	c0.415-0.036,0.843-0.074,1.27-0.138c0.137-0.021,0.265-0.036,0.387-0.051l0.052-0.006c0.582-0.068,1.183-0.139,1.721-0.647
	l0.062-0.06l-0.077-0.038c-0.03-0.015-0.044-0.038-0.044-0.072c0-0.037-0.002-0.077-0.005-0.118
	c-0.006-0.09-0.012-0.183,0.008-0.252c0.011-0.04,0.066-0.079,0.11-0.11c0.021-0.014,0.039-0.026,0.054-0.04
	c0.111-0.095,0.22-0.2,0.342-0.334l0.033-0.037l-0.029-0.039c-0.039-0.052-0.066-0.077-0.096-0.089
	c-0.029-0.01-0.047-0.032-0.056-0.047l-0.01-0.018l-0.019-0.007c-0.031-0.015-0.051-0.055-0.05-0.095
	c0.002-0.028,0.014-0.063,0.062-0.079l0.062-0.02l0.073-0.028c0.085-0.081,0.188-0.128,0.326-0.148l0.056-0.009l-0.005-0.056
	c-0.006-0.079-0.017-0.144-0.033-0.203l-0.017-0.056l-0.25,0.059l-0.035,0.015c-0.012,0.004-0.022,0.007-0.032,0.007l-0.024-0.002
	l-0.007,0.002c-0.205,0.045-0.412,0.087-0.636,0.131c-0.012,0-0.023-0.004-0.036-0.01l-0.024-0.01l-0.175,0.075
	c-0.014,0.005-0.027,0.009-0.041,0.009c-0.052,0-0.097-0.047-0.105-0.09c-0.007-0.031,0.007-0.054,0.041-0.068l0.233-0.098
	c0.399-0.168,0.813-0.341,1.189-0.576l0.024-0.016l0.004-0.028c0.014-0.113,0.014-0.213,0-0.312l-0.099-0.738l-0.729,0.144
	c-0.07,0.015-0.139,0.036-0.207,0.068c-0.072-0.01-0.146-0.014-0.226-0.014c-0.442,0-0.979,0.143-1.553,0.306
	c-0.109,0.031-0.207,0.06-0.286,0.08c-0.408,0.102-0.764,0.191-1.129,0.243l0.014-0.363l-0.058-0.005
	c-0.113-0.01-0.228-0.014-0.342-0.014c-1.007,0-2.045,0.333-3.055,0.657c-0.588,0.188-1.144,0.367-1.646,0.462
	c-0.58,0.108-1.167,0.15-1.797,0.195c-0.653,0.045-1.327,0.094-1.994,0.227c0.07-0.263,0.13-0.528,0.184-0.766
	c0.064-0.293,0.127-0.57,0.198-0.801c0.18-0.588,0.329-1.214,0.462-1.769c0.139-0.582,0.283-1.184,0.457-1.741
	c0.419-1.338,0.727-2.45,0.965-3.503c0.028-0.124,0.098-0.326,0.177-0.557c0.201-0.586,0.45-1.31,0.424-1.953
	c0.568-0.074,1.165-0.136,1.66-0.187c0.609-0.062,1.239-0.128,1.857-0.212c0.225-0.031,0.451-0.057,0.678-0.083l0.058-0.007
	c0.397-0.045,0.809-0.09,1.223-0.162c0.156-0.026,0.312-0.039,0.491-0.039c0.16,0,0.322,0.01,0.5,0.021
	c0.188,0.012,0.391,0.024,0.61,0.024c0.167,0,0.321-0.008,0.475-0.022c0.681-0.065,1.397-0.093,2.03-0.118
	c0.607-0.024,1.295-0.051,1.971-0.11c0.513-0.045,1.014-0.119,1.5-0.189c0.598-0.089,1.165-0.172,1.739-0.205l0.004,0.077
	l0.609,0.044c0.052,0.005,0.102,0.006,0.152,0.008l0.062,0.001c0.505-0.088,1.027-0.148,1.532-0.206
	c0.989-0.113,2.012-0.231,2.968-0.568l0.121-0.058l-0.163-0.075c-0.04-0.02-0.039-0.065-0.038-0.079
	c0.004-0.034,0.025-0.074,0.062-0.082c0.177-0.04,0.339-0.065,0.497-0.08l0.071-0.007l-0.019-0.069
	c-0.07-0.258-0.112-0.498-0.128-0.731c-0.002-0.019,0.007-0.039,0.022-0.056c0.018-0.019,0.042-0.031,0.064-0.031
	c0.001,0,0.001,0,0.001,0c0.064,0.003,0.136,0.012,0.208,0.02l0.082,0.011l0.014-0.051c0.022-0.084,0.044-0.168,0.067-0.251
	l0.006-0.018L51.334,24.659z"/>
</svg>
