<?xml version="1.0" encoding="utf-8"?>
<!-- Generator: Adobe Illustrator 16.0.0, SVG Export Plug-In . SVG Version: 6.00 Build 0)  -->
<!DOCTYPE svg PUBLIC "-//W3C//DTD SVG 1.1//EN" "http://www.w3.org/Graphics/SVG/1.1/DTD/svg11.dtd">
<svg version="1.1" id="Layer_2" xmlns="http://www.w3.org/2000/svg" xmlns:xlink="http://www.w3.org/1999/xlink" x="0px" y="0px"
	 width="62.397px" height="69.5px" viewBox="0 0 62.397 69.5" enable-background="new 0 0 62.397 69.5" xml:space="preserve">
<g>
	<path fill="#FFFFFF" d="M52.117,16.211H12.016c-1.117,1.128-2.128,2.356-3.044,3.657h46.189
		C54.245,18.567,53.234,17.339,52.117,16.211z"/>
	<path fill="#FFFFFF" d="M3.834,36.078c0,0.705,0.055,1.396,0.105,2.089h56.254c0.051-0.693,0.105-1.384,0.105-2.089
		c0-0.53-0.051-1.047-0.079-1.569H3.913C3.885,35.031,3.834,35.548,3.834,36.078z"/>
	<path fill="#FFFFFF" d="M12.016,55.943h40.102c1.117-1.128,2.128-2.356,3.044-3.657H8.972
		C9.888,53.587,10.898,54.815,12.016,55.943z"/>
</g>
</svg>
