<?xml version="1.0" encoding="utf-8"?>
<!-- Generator: Adobe Illustrator 16.0.0, SVG Export Plug-In . SVG Version: 6.00 Build 0)  -->
<!DOCTYPE svg PUBLIC "-//W3C//DTD SVG 1.1//EN" "http://www.w3.org/Graphics/SVG/1.1/DTD/svg11.dtd">
<svg version="1.1" id="Layer_2" xmlns="http://www.w3.org/2000/svg" xmlns:xlink="http://www.w3.org/1999/xlink" x="0px" y="0px"
	 width="62.397px" height="69.5px" viewBox="0 0 62.397 69.5" enable-background="new 0 0 62.397 69.5" xml:space="preserve">
<path fill="#FFFFFF" d="M41.901,23.301c-0.017-0.13-0.025-0.262-0.042-0.391h-0.049C41.851,23.032,41.874,23.167,41.901,23.301z"/>
<path fill="#FFFFFF" d="M39.184,42.702h-2.726c-0.764-0.728-1.403-1.526-1.957-2.348c4.385-1.964,7.562-7.721,7.562-14.525
	c0-0.618-0.034-1.225-0.085-1.824c0.001,0.039,0.008,0.073,0.008,0.111c0,2.16-1.343,5.212-4.447,5.212
	c-3.102,0-5.389-3.678-5.389-5.493c0-0.052,0.004-0.098,0.006-0.149l0.003-1.32v-0.01l-0.005-0.017
	c-0.017-0.069-0.031-0.136-0.074-0.188c-0.038-0.055-0.087-0.099-0.143-0.129c-0.066-0.03-0.089-0.035-0.191-0.041l-0.242,0.005
	c-0.171,0.002-0.341,0.006-0.511,0.003l-0.256-0.001c-0.097,0-0.146-0.001-0.204,0.021c-0.057,0.019-0.109,0.052-0.148,0.1
	c-0.046,0.045-0.062,0.105-0.081,0.147c-0.005,0.034-0.016,0.097-0.014,0.112l-0.002,0.127l-0.006,0.258
	c-0.004,0.335-0.024,0.668-0.038,1.001c0,0.035,0.004,0.069,0.004,0.105c0,1.813-2.286,5.492-5.391,5.492
	c-3.103,0-4.444-3.052-4.444-5.213c0-0.069,0.01-0.132,0.015-0.2c-0.056,0.62-0.093,1.25-0.093,1.89
	c0,6.805,3.177,12.563,7.562,14.525c-0.556,0.825-1.217,1.618-1.985,2.348h-2.695c-6.234,0-11.288,6.249-11.288,13.959v4.006H50.47
	v-4.006C50.47,48.951,45.417,42.702,39.184,42.702z"/>
<path fill="#FFFFFF" d="M32.328,22.313l0.002,0.253c0.081-0.237,0.188-0.45,0.333-0.64c-0.051,0-0.101,0.001-0.152,0.001
	c-0.102,0-0.204-0.001-0.308-0.001c0.093,0.117,0.144,0.27,0.13,0.412L32.328,22.313z"/>
<path fill="#FFFFFF" d="M22.984,19.11l-1.82,2.879c0.826-0.848,2.367-1.208,4.814-1.208c1.771,0,2.86,0.304,3.499,0.891
	c0.014,0,0.024-0.001,0.038-0.001c0.817-0.014,1.905-0.019,2.995-0.021c0.137,0,0.271,0.002,0.403,0.003
	c0.638-0.59,1.729-0.895,3.503-0.895c2.448,0,3.99,0.359,4.816,1.207l-1.822-2.878l0.125-0.082l2.189,3.119
	c-1.182-6.627-5.441-11.541-10.527-11.541c-5.097,0-9.36,4.931-10.533,11.573l2.195-3.128L22.984,19.11z"/>
<path fill="#FFFFFF" d="M30.015,22.369c0-0.07,0.006-0.093,0.008-0.143c0.024-0.122,0.076-0.227,0.148-0.311
	c-0.166-0.001-0.321-0.003-0.472-0.007c0.131,0.165,0.238,0.35,0.317,0.55L30.015,22.369z"/>
<path fill="#FFFFFF" d="M20.534,22.937c-0.019,0.136-0.027,0.277-0.044,0.414c0.027-0.143,0.052-0.286,0.096-0.414H20.534z"/>
</svg>
