<?xml version="1.0" encoding="utf-8"?>
<!-- Generator: Adobe Illustrator 16.0.0, SVG Export Plug-In . SVG Version: 6.00 Build 0)  -->
<!DOCTYPE svg PUBLIC "-//W3C//DTD SVG 1.1//EN" "http://www.w3.org/Graphics/SVG/1.1/DTD/svg11.dtd">
<svg version="1.1" id="Layer_2" xmlns="http://www.w3.org/2000/svg" xmlns:xlink="http://www.w3.org/1999/xlink" x="0px" y="0px"
	 width="62.397px" height="69.5px" viewBox="0 0 62.397 69.5" enable-background="new 0 0 62.397 69.5" xml:space="preserve">
<g>
	<path fill="#FFFFFF" d="M46.337,12.208c-6.352-4.878-15.454-3.684-20.332,2.668c-3.857,5.021-3.902,11.758-0.619,16.771
		l-2.438,3.176l1.964,1.508l-12.06,15.701c-0.716,0.934-0.513,2.291,0.454,3.033l0.145,0.112c0.967,0.742,2.332,0.589,3.048-0.345
		l12.06-15.701l1.963,1.508l2.439-3.176c5.69,1.881,12.188,0.099,16.045-4.924C53.882,26.188,52.688,17.086,46.337,12.208z
		 M30.396,32.964c-5.111-3.926-6.072-11.253-2.146-16.365c3.926-5.111,11.252-6.072,16.364-2.146s6.073,11.253,2.147,16.364
		C42.835,35.929,35.508,36.89,30.396,32.964z"/>
</g>
</svg>
