<?xml version="1.0" encoding="utf-8"?>
<!-- Generator: Adobe Illustrator 16.0.0, SVG Export Plug-In . SVG Version: 6.00 Build 0)  -->
<!DOCTYPE svg PUBLIC "-//W3C//DTD SVG 1.1//EN" "http://www.w3.org/Graphics/SVG/1.1/DTD/svg11.dtd">
<svg version="1.1" id="Layer_2" xmlns="http://www.w3.org/2000/svg" xmlns:xlink="http://www.w3.org/1999/xlink" x="0px" y="0px"
	 width="62.397px" height="69.5px" viewBox="0 0 62.397 69.5" enable-background="new 0 0 62.397 69.5" xml:space="preserve">
<g>
	<path fill="#FFFFFF" d="M30.703,10.585c-13.214,0-23.965,10.751-23.965,23.966s10.751,23.964,23.965,23.964
		c13.213,0,23.966-10.749,23.966-23.964S43.916,10.585,30.703,10.585z M40.178,46.046h-19.16v-1.991
		c0-3.832,2.512-6.939,5.609-6.939h1.343c0.382-0.364,0.711-0.759,0.986-1.167c-2.18-0.977-3.76-3.839-3.76-7.222
		c0-4.188,2.418-7.579,5.4-7.579c2.983,0,5.401,3.392,5.401,7.579c0,3.383-1.58,6.244-3.76,7.222
		c0.275,0.406,0.593,0.804,0.973,1.167h1.355c3.099,0,5.611,3.107,5.611,6.939V46.046z"/>
	<path fill="#FFFFFF" d="M58.271,38.098l2.256-0.009l-0.025-7.306l-2.33,0.008c-0.154-1.048-0.367-2.077-0.634-3.084l2.307-0.914
		L57.149,20l-2.408,0.954c-0.491-0.847-1.022-1.668-1.599-2.456l1.796-1.685l-4.997-5.329l-1.841,1.727
		c-0.997-0.803-2.047-1.539-3.15-2.2l1.032-2.378l-6.705-2.906l-1.036,2.395c-1.265-0.355-2.563-0.623-3.893-0.798V4.74h-7.308
		v2.586c-0.934,0.123-1.853,0.292-2.754,0.506l-0.992-2.526l-6.804,2.667l0.967,2.463c-0.929,0.504-1.819,1.066-2.68,1.669
		l-1.727-1.853l-5.348,4.979l1.692,1.815c-0.832,0.994-1.593,2.047-2.28,3.152l-2.183-0.956l-2.931,6.691l2.107,0.924
		c-0.42,1.401-0.731,2.851-0.925,4.336l-2.329,0.024l0.077,7.306l2.253-0.023c0.111,0.853,0.263,1.692,0.451,2.517l-1.957,0.761
		l2.644,6.812l1.859-0.721c0.578,1.087,1.23,2.129,1.943,3.125l-1.535,1.46l5.037,5.292l1.49-1.418
		c1.076,0.879,2.218,1.678,3.417,2.392l-0.775,1.82l6.724,2.857l0.77-1.81c1.298,0.359,2.633,0.629,4.001,0.797l0.013,2.001
		l7.307-0.054l-0.013-1.998c1.097-0.153,2.178-0.367,3.231-0.645l0.691,1.727l6.78-2.718l-0.718-1.792
		c0.889-0.512,1.746-1.068,2.568-1.674l1.407,1.49l5.313-5.017l-1.449-1.532c0.857-1.072,1.634-2.206,2.328-3.396l2.02,0.868
		l2.881-6.716l-2.094-0.898C57.863,40.754,58.114,39.439,58.271,38.098z M30.703,59.685C16.844,59.685,5.57,48.41,5.57,34.551
		S16.844,9.416,30.703,9.416s25.135,11.275,25.135,25.135S44.562,59.685,30.703,59.685z"/>
</g>
</svg>
