<?xml version="1.0" encoding="utf-8"?>
<!-- Generator: Adobe Illustrator 16.0.0, SVG Export Plug-In . SVG Version: 6.00 Build 0)  -->
<!DOCTYPE svg PUBLIC "-//W3C//DTD SVG 1.1//EN" "http://www.w3.org/Graphics/SVG/1.1/DTD/svg11.dtd">
<svg version="1.1" id="Layer_2" xmlns="http://www.w3.org/2000/svg" xmlns:xlink="http://www.w3.org/1999/xlink" x="0px" y="0px"
	 width="62.397px" height="69.5px" viewBox="0 0 62.397 69.5" enable-background="new 0 0 62.397 69.5" xml:space="preserve">
<path fill="#FFFFFF" d="M19.315,30.655c-0.008-0.003-0.016-0.006-0.023-0.009"/>
<g>
	<g>
		<path fill="#FFFFFF" d="M28.073,28.003c-0.038-0.922-0.092-1.844-0.106-2.766l-0.018-0.691L27.94,24.2
			c-0.004-0.192,0.014-0.251,0.02-0.384c0.128-0.655,0.545-1.127,1.118-1.339c0.271-0.114,0.62-0.113,0.818-0.115l0.69-0.005
			c0.461-0.01,0.922,0.004,1.383,0.011c0.248,0.007,0.422,0.001,0.73,0.019c0.178,0.014,0.585,0.11,0.801,0.277
			c0.501,0.308,0.764,0.912,0.72,1.454l-0.01-0.07l0.01,4.161l-0.5-0.004l0.01-4.017v-0.029l-0.01-0.041
			c-0.046-0.185-0.086-0.364-0.202-0.505c-0.101-0.146-0.236-0.261-0.387-0.338c-0.175-0.085-0.229-0.095-0.51-0.109l-0.652,0.011
			c-0.461,0.007-0.922,0.021-1.383,0.011l-0.69-0.005c-0.261,0-0.385-0.005-0.545,0.055c-0.151,0.052-0.293,0.142-0.396,0.268
			c-0.123,0.118-0.167,0.278-0.216,0.391c-0.01,0.098-0.039,0.268-0.033,0.305l-0.009,0.346l-0.018,0.691
			c-0.015,0.922-0.068,1.844-0.106,2.766H28.073z"/>
	</g>
	<g>
		<path fill="#FFFFFF" d="M22.926,22.384c0,0,1.471-0.031,3.677-0.079c2.206-0.037,5.147-0.052,8.089-0.057
			c2.942,0.008,5.884,0.023,8.09,0.06c2.206,0.046,3.677,0.076,3.677,0.076v0.5c0,0-1.471,0.03-3.677,0.076
			c-2.206,0.036-5.147,0.052-8.09,0.06c-2.941-0.005-5.883-0.02-8.089-0.057c-2.206-0.048-3.677-0.079-3.677-0.079V22.384z"/>
	</g>
	<g>
		<path fill="#050606" d="M16.539,22.384c0,0,0.399-0.042,0.998-0.079s1.396-0.052,2.195-0.057c0.799,0.008,1.597,0.023,2.195,0.06
			c0.599,0.038,0.998,0.076,0.998,0.076v0.5c0,0-0.399,0.038-0.998,0.076c-0.599,0.036-1.396,0.052-2.195,0.06
			c-0.799-0.005-1.597-0.02-2.195-0.057s-0.998-0.079-0.998-0.079V22.384z"/>
	</g>
	<g>
		<path fill="#FFFFFF" d="M17.052,19.91c-7.684,0-12.073,1.314-13.942,4.482H1.76v1.335h0.729c-0.315,0.951-0.468,2.033-0.468,3.255
			c0,5.832,3.624,14.072,12.003,14.072s14.554-9.933,14.554-14.83C28.578,22.776,26.025,19.91,17.052,19.91z"/>
		<g>
			<polygon fill="#FFFFFF" points="1.829,24.844 8.626,15.175 8.972,15.405 2.661,25.398 			"/>
		</g>
	</g>
	<g>
		<path fill="#FFFFFF" d="M45.243,19.846c7.682,0,12.073,1.313,13.941,4.481h1.351v1.335h-0.73c0.315,0.952,0.468,2.033,0.468,3.256
			c0,5.832-3.623,14.071-12.002,14.071S33.717,33.057,33.717,28.16C33.717,22.711,36.27,19.846,45.243,19.846z"/>
		<g>
			<polygon fill="#FFFFFF" points="59.634,25.333 53.323,15.34 53.669,15.109 60.466,24.778 			"/>
		</g>
	</g>
</g>
</svg>
